<?xml version="1.0" encoding="utf-8"?>
<!-- Generator: Adobe Illustrator 19.0.0, SVG Export Plug-In . SVG Version: 6.00 Build 0)  -->
<svg version="1.1" id="Layer_1" xmlns="http://www.w3.org/2000/svg" xmlns:xlink="http://www.w3.org/1999/xlink" x="0px" y="0px"
	 viewBox="0 0 200 164.1" style="enable-background:new 0 0 200 164.1;" xml:space="preserve">
<style type="text/css">
	.st0{fill:#8A7146;}
	.st1{fill:url(#XMLID_133_);}
	.st2{fill:url(#XMLID_134_);}
	.st3{fill:url(#XMLID_136_);}
	.st4{fill:url(#XMLID_138_);}
	.st5{fill:url(#XMLID_139_);}
	.st6{fill:url(#XMLID_141_);}
	.st7{fill:url(#XMLID_143_);}
	.st8{fill:url(#XMLID_144_);}
	.st9{fill:url(#XMLID_145_);}
	.st10{fill:url(#XMLID_147_);}
	.st11{fill:url(#XMLID_148_);}
	.st12{fill:url(#XMLID_149_);}
	.st13{fill:url(#XMLID_150_);}
	.st14{fill:url(#XMLID_151_);}
	.st15{fill:url(#XMLID_152_);}
	.st16{fill:url(#XMLID_153_);}
	.st17{fill:url(#XMLID_154_);}
	.st18{fill:url(#XMLID_155_);}
	.st19{fill:url(#XMLID_156_);}
	.st20{fill:url(#XMLID_157_);}
	.st21{fill:url(#XMLID_158_);}
	.st22{fill:url(#XMLID_159_);}
	.st23{fill:url(#XMLID_160_);}
	.st24{fill:url(#XMLID_161_);}
	.st25{fill:url(#XMLID_162_);}
	.st26{fill:url(#XMLID_163_);}
	.st27{fill:url(#XMLID_164_);}
	.st28{fill:url(#XMLID_165_);}
	.st29{fill:url(#XMLID_166_);}
	.st30{fill:url(#XMLID_167_);}
	.st31{fill:url(#XMLID_168_);}
	.st32{fill:#877246;}
</style>
<g id="XMLID_109_">
	<path id="XMLID_125_" class="st0" d="M25.1,116.6l-1.5,6.2h-0.4c-0.1-1-0.3-1.7-0.5-2.3c-0.4-0.8-0.9-1.5-1.5-1.9
		c-0.6-0.5-1.3-0.7-2-0.7c-0.7,0-1.3,0.3-1.8,0.8c-0.5,0.5-0.8,1.1-0.8,1.8c0,0.7,0.2,1.3,0.5,2c0.4,0.6,1.2,1.6,2.6,2.9
		c1.1,1,1.8,1.9,2.2,2.7c0.4,0.7,0.6,1.6,0.6,2.4c0,1-0.3,1.9-0.8,2.7c-0.5,0.8-1.3,1.5-2.3,1.9c-1,0.5-2.1,0.7-3.4,0.7
		c-0.8,0-1.7-0.1-2.9-0.3c-1.2-0.2-1.9-0.3-2.3-0.3c-0.3,0-0.6,0-0.8,0.1c-0.2,0.1-0.5,0.3-0.9,0.5H8.4l1.6-6.9h0.5
		c0.1,1.2,0.4,2.3,0.7,3.1c0.4,0.9,0.9,1.5,1.6,2c0.7,0.5,1.5,0.7,2.4,0.7c0.9,0,1.6-0.3,2.2-0.9c0.6-0.6,0.9-1.3,0.9-2.1
		c0-0.7-0.2-1.3-0.5-1.9s-1.1-1.5-2.3-2.7c-1.2-1.2-2-2.2-2.5-3.2c-0.3-0.7-0.5-1.4-0.5-2.2c0-1.4,0.5-2.5,1.6-3.5
		c1.1-1,2.5-1.5,4.2-1.5c0.8,0,1.8,0.2,3.1,0.5c0.7,0.2,1.3,0.3,1.6,0.3c0.3,0,0.5-0.1,0.7-0.2c0.2-0.1,0.4-0.3,0.7-0.7H25.1z"/>
	<path id="XMLID_122_" class="st0" d="M33.4,122.8c0.7,0,1.4,0.2,2,0.5c0.6,0.3,1.1,0.8,1.4,1.4c0.3,0.6,0.5,1.2,0.5,1.9
		c0,1.5-0.4,2.9-1.2,4.4c-0.8,1.5-1.9,2.6-3.2,3.4c-1.3,0.8-2.7,1.3-4,1.3c-1.2,0-2.2-0.4-2.8-1.1c-0.7-0.7-1-1.6-1-2.7
		c0-1.2,0.2-2.4,0.7-3.5c0.5-1.1,1.1-2,1.9-2.8c0.8-0.8,1.6-1.5,2.6-2C31.3,123,32.3,122.8,33.4,122.8z M32.8,123.5
		c-0.5,0-0.9,0.1-1.2,0.4c-0.6,0.6-1.3,1.9-2.1,4c-0.8,2.1-1.2,3.9-1.2,5.6c0,0.4,0.1,0.8,0.4,1c0.3,0.3,0.5,0.4,0.9,0.4
		c0.3,0,0.7-0.1,0.9-0.3c0.4-0.3,0.9-1,1.5-2.2c0.6-1.1,1-2.4,1.4-3.7c0.4-1.4,0.6-2.6,0.6-3.7c0-0.5-0.1-0.8-0.3-1.1
		C33.4,123.6,33.1,123.5,32.8,123.5z"/>
	<path id="XMLID_120_" class="st0" d="M45.4,122.8l-2.6,9.1c-0.1,0.4-0.2,0.7-0.2,0.9c0,0.1,0,0.1,0.1,0.2c0.1,0.1,0.2,0.1,0.3,0.1
		c0.4,0,1-0.4,1.7-1.1c1-1.1,2-2.6,3.1-4.6l1.2-4.1l3.4-0.1l-2.6,8.9c-0.2,0.8-0.3,1.2-0.3,1.3c0,0.1,0,0.1,0.1,0.2
		c0.1,0.1,0.1,0.1,0.2,0.1c0.1,0,0.2-0.1,0.4-0.2c0.3-0.3,0.7-0.8,1.3-1.6l0.5,0.3c-1.2,2.2-2.6,3.4-4.1,3.4c-0.6,0-1-0.1-1.3-0.4
		c-0.3-0.3-0.5-0.7-0.5-1.1c0-0.5,0.1-1.1,0.3-1.8l0.7-2.3c-1.2,1.7-2,2.8-2.5,3.4c-0.8,0.9-1.5,1.5-2,1.8c-0.6,0.3-1.1,0.4-1.6,0.4
		c-0.5,0-0.9-0.2-1.2-0.5c-0.3-0.3-0.5-0.8-0.5-1.3c0-0.5,0.1-1.1,0.3-1.8l1.5-5.4c0.3-0.9,0.4-1.5,0.4-1.8c0-0.1,0-0.3-0.1-0.4
		c-0.1-0.1-0.2-0.2-0.4-0.2c-0.2-0.1-0.5-0.1-0.9-0.1l0.1-0.5l4.6-0.8H45.4z"/>
	<path id="XMLID_118_" class="st0" d="M60.7,122.8l-1.7,5.8c1.1-1.7,2-2.8,2.5-3.5c0.8-0.9,1.5-1.5,2.1-1.8c0.6-0.3,1.1-0.5,1.7-0.5
		c0.5,0,0.9,0.2,1.2,0.5c0.3,0.3,0.5,0.8,0.5,1.4c0,0.5-0.1,1.1-0.3,1.8l-1.7,5.7c-0.1,0.5-0.2,0.8-0.2,1c0,0.1,0,0.2,0.1,0.2
		c0.1,0.1,0.1,0.1,0.2,0.1c0.1,0,0.2,0,0.3-0.1c0.3-0.3,0.6-0.6,1-1.1c0.1-0.1,0.2-0.3,0.4-0.6l0.5,0.3c-1.3,2.2-2.7,3.3-4.2,3.3
		c-0.6,0-1-0.1-1.3-0.4c-0.3-0.3-0.5-0.6-0.5-1.1c0-0.4,0.1-0.9,0.3-1.7l1.7-5.7c0.1-0.4,0.2-0.7,0.2-0.8c0-0.1,0-0.2-0.1-0.3
		c-0.1-0.1-0.2-0.1-0.3-0.1c-0.3,0-0.8,0.2-1.2,0.7c-1.2,1.2-2.4,2.9-3.6,5.3l-1.1,4h-3.4l2.5-8.6c0.2-0.9,0.4-1.5,0.4-1.8
		c0-0.2,0-0.3-0.1-0.4c-0.1-0.1-0.2-0.2-0.3-0.2c-0.2-0.1-0.5-0.1-0.9-0.1l0.1-0.5l4.5-0.8H60.7z"/>
	<linearGradient id="XMLID_133_" gradientUnits="userSpaceOnUse" x1="69.2544" y1="126.0844" x2="83.7167" y2="126.0844">
		<stop  offset="0" style="stop-color:#B0944D"/>
		<stop  offset="0.9757" style="stop-color:#CCB94D"/>
	</linearGradient>
	<path id="XMLID_110_" class="st1" d="M83.7,116.6l-4.4,15c-0.3,0.9-0.4,1.5-0.4,1.7c0,0.1,0,0.2,0.1,0.3c0.1,0.1,0.1,0.1,0.2,0.1
		c0.2,0,0.3-0.1,0.5-0.2c0.3-0.3,0.7-0.7,1.2-1.4l0.5,0.3c-1.3,2.2-2.7,3.3-4.2,3.3c-0.5,0-1-0.1-1.2-0.4c-0.3-0.3-0.4-0.6-0.4-1.1
		c0-0.4,0.1-1,0.3-1.8l0.4-1.4c-1.1,2-2.1,3.3-2.9,4c-0.6,0.5-1.2,0.7-1.8,0.7c-0.7,0-1.2-0.3-1.7-0.8c-0.5-0.5-0.7-1.3-0.7-2.4
		c0-1.3,0.3-2.7,0.9-4c0.6-1.3,1.3-2.4,2-3.3c0.8-0.9,1.5-1.5,2.2-1.9c0.7-0.4,1.4-0.6,2.1-0.6c0.3,0,0.7,0.1,0.9,0.2
		c0.3,0.1,0.6,0.4,0.9,0.8l1-3.3c0.2-0.8,0.4-1.4,0.4-1.8c0-0.2-0.1-0.4-0.2-0.6s-0.4-0.2-0.6-0.2c-0.1,0-0.3,0-0.5,0l0.1-0.5
		l4.4-0.8H83.7z M77.8,125.1c0-0.5-0.1-0.9-0.3-1.2c-0.2-0.3-0.5-0.4-0.8-0.4c-0.3,0-0.6,0.1-0.9,0.4c-0.6,0.6-1.3,1.7-2,3.5
		c-0.7,1.7-1,3.2-1,4.4c0,0.4,0.1,0.7,0.2,1c0.2,0.2,0.3,0.3,0.5,0.3c0.3,0,0.6-0.1,0.9-0.4c0.8-0.7,1.5-1.9,2.3-3.5
		C77.4,127.5,77.8,126.1,77.8,125.1z"/>
</g>
<radialGradient id="XMLID_134_" cx="125.1793" cy="126.1129" r="26.1608" fx="151.2708" fy="124.2097" gradientTransform="matrix(1.0227 0 0 1 -28.4462 0)" gradientUnits="userSpaceOnUse">
	<stop  offset="0.442" style="stop-color:#F0E34C"/>
	<stop  offset="0.9128" style="stop-color:#C3A94D"/>
</radialGradient>
<path id="XMLID_105_" class="st2" d="M100.4,122.6c-0.1-0.6-0.2-1.2-0.2-1.7c0-0.5-0.1-1-0.1-1.4c0-2.4,0.7-4.3,2.2-5.9
	c1.5-1.6,3.3-2.3,5.3-2.3c1.3,0,2.3,0.4,3.1,1.1c0.8,0.7,1.2,1.6,1.2,2.6c0,1.3-0.4,2.3-1.2,3.3c-1.1,1.4-3,2.6-5.5,3.6
	c0.8,2.5,1.4,4.2,1.7,4.9c0.3,0.7,0.7,1.6,1.2,2.4c0.7-0.7,1.2-1.5,1.5-2.2c0.3-0.7,0.5-1.3,0.5-1.7c0-0.4-0.1-0.7-0.3-1
	c-0.2-0.3-0.6-0.5-1.1-0.6l0.2-0.6h6.9l-0.3,0.6c-0.7,0.2-1.2,0.4-1.6,0.8c-0.4,0.4-1.3,1.3-2.5,2.9c-0.9,1.1-1.7,2.1-2.6,3
	c1,1.3,1.8,2.2,2.6,2.7c0.5,0.3,1.1,0.5,1.7,0.5c0.4,0,0.7-0.1,1-0.2c0.3-0.1,0.6-0.3,1-0.7h0.6c-0.6,1.2-1.3,2.1-2.3,2.7
	c-1,0.6-2,0.9-3.2,0.9c-1,0-1.9-0.2-2.7-0.6c-0.8-0.4-1.7-1.1-2.6-2c-1.2,0.9-2.5,1.5-3.8,1.9c-1.3,0.4-2.5,0.7-3.8,0.7
	c-1.9,0-3.3-0.5-4.4-1.5s-1.6-2.2-1.6-3.6c0-1.1,0.2-2.1,0.7-2.9c0.5-0.8,1.4-1.8,2.7-2.7C96.1,124.7,98,123.7,100.4,122.6z
	 M100.7,123.9c-1.4,0.7-2.4,1.5-3,2.3c-0.6,0.8-0.9,1.7-0.9,2.9c0,1.4,0.4,2.5,1.3,3.4c0.9,0.9,1.8,1.4,2.9,1.4c0.5,0,1-0.1,1.5-0.3
	c0.6-0.2,1.2-0.5,1.8-0.9c-0.7-1.1-1.4-2.5-2.1-4.1C101.5,127,101,125.4,100.7,123.9z M105.1,120.5c1-0.7,1.7-1.4,2.2-2.1
	c0.6-1,1-2.1,1-3.2c0-0.8-0.2-1.5-0.5-2c-0.3-0.3-0.7-0.5-1.1-0.5c-0.5,0-1,0.2-1.3,0.6c-0.5,0.6-0.7,1.6-0.7,3c0,0.6,0,1.3,0.1,2
	C104.8,118.9,104.9,119.7,105.1,120.5z"/>
<g id="XMLID_86_">
	<path id="XMLID_102_" class="st0" d="M147.6,121.7l-3,9.4c-0.2,0.5-0.2,0.9-0.2,1.1c0,0.1,0,0.2,0.1,0.3c0.1,0.1,0.2,0.1,0.3,0.1
		c0.2,0,0.3-0.1,0.5-0.2c0.4-0.3,1-0.9,1.6-1.8l0.5,0.3c-1.5,2.3-3,3.5-4.7,3.5c-0.6,0-1.1-0.2-1.5-0.5c-0.4-0.3-0.6-0.7-0.6-1.2
		c0-0.3,0.1-0.7,0.2-1.2l2-6.3c0.2-0.6,0.3-1.1,0.3-1.4c0-0.2-0.1-0.4-0.3-0.5c-0.2-0.1-0.4-0.2-0.8-0.2c-0.1,0-0.3,0-0.5,0l0.2-0.5
		l5-0.7H147.6z M146.7,115.6c0.6,0,1.1,0.2,1.5,0.6c0.4,0.4,0.6,0.8,0.6,1.4c0,0.5-0.2,1-0.6,1.4c-0.4,0.4-0.9,0.6-1.5,0.6
		c-0.6,0-1.1-0.2-1.5-0.6c-0.4-0.4-0.6-0.8-0.6-1.4c0-0.5,0.2-1,0.6-1.4C145.6,115.8,146.1,115.6,146.7,115.6z"/>
	<path id="XMLID_98_" class="st0" d="M159.9,122.5h3.9l-0.5,1.5h-2c0.3,0.5,0.5,1,0.5,1.5c0,0.8-0.2,1.5-0.7,2.2
		c-0.5,0.7-1.2,1.2-2.1,1.6c-0.9,0.4-2,0.6-3.1,0.6c-0.3,0-0.6,0-1-0.1c-0.4,0-0.8-0.1-1.2-0.2c-0.6,0.3-1,0.5-1.2,0.7
		c-0.1,0.1-0.2,0.3-0.2,0.4c0,0.2,0.1,0.3,0.2,0.4c0.3,0.2,0.6,0.4,1.1,0.4c2,0.4,3.3,0.7,3.9,0.9c0.9,0.3,1.5,0.7,2,1.3
		c0.4,0.5,0.7,1.1,0.7,1.9c0,1.1-0.6,2.1-1.7,2.9c-1.1,0.8-2.9,1.2-5.2,1.2c-2.4,0-4.1-0.4-5.2-1.1c-0.8-0.5-1.2-1.1-1.2-1.8
		c0-0.5,0.3-1,0.8-1.5c0.5-0.5,1.7-0.9,3.4-1.2c-0.6-0.3-1-0.6-1.2-0.8c-0.3-0.3-0.4-0.7-0.4-1c0-0.6,0.3-1.1,0.8-1.6
		c0.5-0.4,1.4-0.9,2.6-1.3c-1-0.3-1.6-0.8-2.1-1.3s-0.6-1.2-0.6-1.9c0-0.8,0.3-1.5,0.8-2.2c0.5-0.7,1.3-1.3,2.3-1.7
		c1-0.4,2.1-0.6,3.4-0.6c0.8,0,1.6,0.1,2.2,0.3C159.1,122.1,159.5,122.2,159.9,122.5z M151.8,134.5c-0.9,0.3-1.6,0.7-1.9,1.1
		c-0.3,0.4-0.5,0.8-0.5,1.2c0,0.6,0.3,1.1,1,1.6c0.7,0.5,1.7,0.7,3.2,0.7c1.2,0,2.1-0.2,2.6-0.6c0.5-0.4,0.8-0.9,0.8-1.4
		c0-0.5-0.3-0.9-0.8-1.2c-0.5-0.3-1.5-0.6-2.9-0.9C152.8,134.8,152.2,134.7,151.8,134.5z M156.8,122.4c-0.5,0-0.9,0.1-1.2,0.4
		c-0.5,0.4-1,1.2-1.4,2.2c-0.4,1-0.6,2-0.6,2.9c0,0.4,0.1,0.8,0.4,1c0.3,0.3,0.6,0.4,1,0.4c0.4,0,0.7-0.1,1-0.4
		c0.6-0.5,1-1.3,1.4-2.3c0.4-1.1,0.6-2,0.6-2.9c0-0.4-0.1-0.7-0.4-0.9S157.2,122.4,156.8,122.4z"/>
	<path id="XMLID_96_" class="st0" d="M173.1,115.6l-3.8,11.9c1.3-1.8,2.3-2.9,2.9-3.6c0.9-0.9,1.6-1.5,2.3-1.8
		c0.6-0.3,1.3-0.5,1.8-0.5c0.5,0,0.9,0.2,1.3,0.5c0.4,0.3,0.5,0.8,0.5,1.4c0,0.5-0.1,1.1-0.4,1.8l-1.9,5.6c-0.2,0.5-0.2,0.8-0.2,1
		c0,0.1,0,0.2,0.1,0.2c0.1,0.1,0.1,0.1,0.2,0.1c0.1,0,0.2,0,0.4-0.1c0.3-0.2,0.6-0.6,1-1.1c0.1-0.1,0.2-0.3,0.4-0.6l0.6,0.3
		c-0.8,1.3-1.6,2.1-2.4,2.6c-0.8,0.5-1.5,0.7-2.1,0.7c-0.6,0-1.1-0.1-1.4-0.4c-0.3-0.3-0.5-0.6-0.5-1.1c0-0.4,0.1-0.9,0.4-1.7
		l1.8-5.6c0.1-0.4,0.2-0.7,0.2-0.8c0-0.1,0-0.2-0.1-0.3c-0.1-0.1-0.2-0.1-0.3-0.1c-0.4,0-0.8,0.3-1.4,0.8c-1.3,1.1-2.5,2.8-3.8,5.1
		l-1.3,3.9h-3.6l4.8-14.9c0.2-0.6,0.3-1.1,0.3-1.4c0-0.2-0.1-0.4-0.3-0.5c-0.3-0.2-0.6-0.2-1.2-0.2l0.1-0.5l4.9-0.8H173.1z"/>
	<path id="XMLID_94_" class="st0" d="M188.5,118.5l-1.2,3.6h1.9l-0.5,1.5h-1.9l-2.4,7.7c-0.2,0.5-0.2,0.8-0.2,1.1
		c0,0.1,0,0.2,0.1,0.3c0.1,0.1,0.2,0.1,0.3,0.1c0.2,0,0.3-0.1,0.5-0.2c0.4-0.3,1-0.8,1.6-1.6l0.5,0.3c-0.7,1.1-1.4,1.8-2.2,2.3
		c-0.8,0.5-1.6,0.7-2.4,0.7c-0.7,0-1.2-0.2-1.5-0.5c-0.4-0.3-0.5-0.7-0.5-1.2c0-0.5,0.1-1.2,0.4-2l2.3-7.2h-2l0.3-1
		c1.2-0.4,2.3-0.9,3.2-1.5c0.9-0.6,1.9-1.5,3.1-2.7H188.5z"/>
	<g id="XMLID_87_">
		<g id="XMLID_106_">
			<linearGradient id="XMLID_136_" gradientUnits="userSpaceOnUse" x1="129.0898" y1="126.0141" x2="117.6787" y2="121.3687">
				<stop  offset="0.1045" style="stop-color:#8A7146"/>
				<stop  offset="0.6255" style="stop-color:#CCB94D"/>
			</linearGradient>
			<path id="XMLID_107_" class="st3" d="M136.3,134.7h-16.4l0.2-0.5c1,0,1.7-0.2,2.1-0.5c0.4-0.3,0.9-1.1,1.2-2.3l3.8-11.9
				c0.2-0.7,0.3-1.2,0.3-1.5c0-0.4-0.2-0.7-0.5-0.9c-0.3-0.2-0.9-0.3-1.8-0.4l0.2-0.5h9.8l-0.2,0.5c-0.9,0-1.7,0.2-2.1,0.6
				c-0.5,0.4-0.9,1.1-1.2,2.2l-3.5,10.9c-0.4,1.4-0.7,2.2-0.7,2.5c0,0.2,0.1,0.4,0.3,0.5c0.2,0.2,0.6,0.2,1.1,0.2
				c1.7,0,3.3-0.3,4.8-1c1.6-0.7,2.9-1.7,3.9-3.1h0.6L136.3,134.7z"/>
		</g>
	</g>
</g>
<g id="XMLID_23_">
	<linearGradient id="XMLID_138_" gradientUnits="userSpaceOnUse" x1="100.3702" y1="106.1104" x2="193.5963" y2="106.1104">
		<stop  offset="5.405406e-003" style="stop-color:#FFFFFF"/>
		<stop  offset="0.2676" style="stop-color:#F0E24B"/>
		<stop  offset="0.4937" style="stop-color:#C3A94D"/>
		<stop  offset="0.7459" style="stop-color:#986E46"/>
		<stop  offset="0.9757" style="stop-color:#996E46"/>
	</linearGradient>
	<path id="XMLID_37_" class="st4" d="M100.4,108.5h93.2l-3.6-4.8h-47.8c0,0,0,1.1-1.3,1.1c-1.3,0-40.5,0-40.5,0V108.5z"/>
	<linearGradient id="XMLID_139_" gradientUnits="userSpaceOnUse" x1="100.3702" y1="98.9745" x2="188.2043" y2="98.9745">
		<stop  offset="5.405406e-003" style="stop-color:#FFFFFF"/>
		<stop  offset="0.2676" style="stop-color:#F0E24B"/>
		<stop  offset="0.4937" style="stop-color:#C3A94D"/>
		<stop  offset="0.7459" style="stop-color:#986E46"/>
		<stop  offset="0.9757" style="stop-color:#996E46"/>
	</linearGradient>
	<path id="XMLID_36_" class="st5" d="M100.4,100.9h39.2c0,0,2-0.5,2.1,1h46.6l-5.1-6h-44.1c0,0-0.1,1-1.6,1s-37-0.4-37-0.4V100.9z"
		/>
	<linearGradient id="XMLID_141_" gradientUnits="userSpaceOnUse" x1="100.7609" y1="91.4608" x2="182.1091" y2="91.4608">
		<stop  offset="5.405406e-003" style="stop-color:#FFFFFF"/>
		<stop  offset="0.2676" style="stop-color:#F0E24B"/>
		<stop  offset="0.4937" style="stop-color:#C3A94D"/>
		<stop  offset="0.7459" style="stop-color:#986E46"/>
		<stop  offset="0.9757" style="stop-color:#996E46"/>
	</linearGradient>
	<path id="XMLID_35_" class="st6" d="M100.8,93.4H137c0,0,1.9-0.5,2,1h43.1l-4.9-6h-40.6c0,0-0.1,1-1.5,1c-1.4,0-34.3-0.4-34.3-0.4
		V93.4z"/>
	<linearGradient id="XMLID_143_" gradientUnits="userSpaceOnUse" x1="100.7316" y1="84.3626" x2="175.5157" y2="84.3626">
		<stop  offset="5.405406e-003" style="stop-color:#FFFFFF"/>
		<stop  offset="0.2676" style="stop-color:#F0E24B"/>
		<stop  offset="0.4937" style="stop-color:#C3A94D"/>
		<stop  offset="0.7459" style="stop-color:#986E46"/>
		<stop  offset="0.9757" style="stop-color:#996E46"/>
	</linearGradient>
	<path id="XMLID_30_" class="st7" d="M100.7,86.4h31.6c0,0,3.7-0.5,3.6,0.8l39.6-0.1l-4.3-5.6l-37.5,0c0,0-0.4,0.7-1.8,0.7
		c-2,0-31.2-0.4-31.2-0.4V86.4z"/>
	<linearGradient id="XMLID_144_" gradientUnits="userSpaceOnUse" x1="101.1712" y1="76.7845" x2="168.5413" y2="76.7845">
		<stop  offset="5.405406e-003" style="stop-color:#FFFFFF"/>
		<stop  offset="0.2676" style="stop-color:#F0E24B"/>
		<stop  offset="0.4937" style="stop-color:#C3A94D"/>
		<stop  offset="0.7459" style="stop-color:#986E46"/>
		<stop  offset="0.9757" style="stop-color:#996E46"/>
	</linearGradient>
	<path id="XMLID_29_" class="st8" d="M101.2,78.8h28.4c0,0,3.3-0.5,3.2,0.8l35.7-0.1l-4.7-5.6l-33.1,0c0,0-0.4,0.7-1.6,0.7
		c-1.8,0-28.1-0.4-28.1-0.4V78.8z"/>
	<linearGradient id="XMLID_145_" gradientUnits="userSpaceOnUse" x1="101.1719" y1="69.3836" x2="163.1786" y2="69.3836">
		<stop  offset="5.405406e-003" style="stop-color:#FFFFFF"/>
		<stop  offset="0.2676" style="stop-color:#F0E24B"/>
		<stop  offset="0.4937" style="stop-color:#C3A94D"/>
		<stop  offset="0.7459" style="stop-color:#986E46"/>
		<stop  offset="0.9757" style="stop-color:#996E46"/>
	</linearGradient>
	<path id="XMLID_28_" class="st9" d="M101.2,71.6h25.9c0,0,3-0.5,3,0.8h33.2l-5.6-6l-30.1,0c0,0,0.3,1.1-0.7,1.1
		c-1.6,0-25.6-0.7-25.6-0.7V71.6z"/>
	<linearGradient id="XMLID_147_" gradientUnits="userSpaceOnUse" x1="101.1712" y1="61.9671" x2="156.0089" y2="61.9671">
		<stop  offset="5.405406e-003" style="stop-color:#FFFFFF"/>
		<stop  offset="0.2676" style="stop-color:#F0E24B"/>
		<stop  offset="0.4937" style="stop-color:#C3A94D"/>
		<stop  offset="0.7459" style="stop-color:#986E46"/>
		<stop  offset="0.9757" style="stop-color:#996E46"/>
	</linearGradient>
	<path id="XMLID_27_" class="st10" d="M125.2,64.2h-24l0-5l22.1,0.5c0,0,1-0.1,1.3-1h26.5l4.9,6.4l-28.9-0.3
		C127.1,64.8,127,64.2,125.2,64.2z"/>
	<linearGradient id="XMLID_148_" gradientUnits="userSpaceOnUse" x1="101.1719" y1="54.4102" x2="149.2885" y2="54.4102">
		<stop  offset="5.405406e-003" style="stop-color:#FFFFFF"/>
		<stop  offset="0.2676" style="stop-color:#F0E24B"/>
		<stop  offset="0.4937" style="stop-color:#C3A94D"/>
		<stop  offset="0.7459" style="stop-color:#986E46"/>
		<stop  offset="0.9757" style="stop-color:#996E46"/>
	</linearGradient>
	<path id="XMLID_22_" class="st11" d="M122.7,56.6h-21.5v-4.8l18.8,0.4c0,0,1.3,0.2,1.6-0.9h22.5l5.2,6.1h-24.9
		C124.4,57.5,124.3,56.6,122.7,56.6z"/>
	<linearGradient id="XMLID_149_" gradientUnits="userSpaceOnUse" x1="101.1712" y1="46.8532" x2="142.4899" y2="46.8532">
		<stop  offset="5.405406e-003" style="stop-color:#FFFFFF"/>
		<stop  offset="0.2676" style="stop-color:#F0E24B"/>
		<stop  offset="0.4937" style="stop-color:#C3A94D"/>
		<stop  offset="0.7459" style="stop-color:#986E46"/>
		<stop  offset="0.9757" style="stop-color:#996E46"/>
	</linearGradient>
	<path id="XMLID_21_" class="st12" d="M119.4,49h-18.3l0-4.8c0,0,15.1-0.2,15.3,0s1.4,0.3,2.1-0.4h19.1l4.8,6h-21.7
		C120.8,49.9,120.4,49,119.4,49z"/>
	<linearGradient id="XMLID_150_" gradientUnits="userSpaceOnUse" x1="101.1712" y1="39.2531" x2="136.1603" y2="39.2531">
		<stop  offset="5.405406e-003" style="stop-color:#FFFFFF"/>
		<stop  offset="0.2676" style="stop-color:#F0E24B"/>
		<stop  offset="0.4937" style="stop-color:#C3A94D"/>
		<stop  offset="0.7459" style="stop-color:#986E46"/>
		<stop  offset="0.9757" style="stop-color:#996E46"/>
	</linearGradient>
	<path id="XMLID_19_" class="st13" d="M116.7,41.4h-15.5l0-4.8h13c0,0,1.2,0.5,1.6-0.5h15.2l5.2,6.2h-17.7
		C118.5,42.4,118,41.4,116.7,41.4z"/>
	<linearGradient id="XMLID_151_" gradientUnits="userSpaceOnUse" x1="103.6523" y1="31.4371" x2="129.0491" y2="31.4371">
		<stop  offset="5.405406e-003" style="stop-color:#FFFFFF"/>
		<stop  offset="0.2676" style="stop-color:#F0E24B"/>
		<stop  offset="0.4937" style="stop-color:#C3A94D"/>
		<stop  offset="0.7459" style="stop-color:#986E46"/>
		<stop  offset="0.9757" style="stop-color:#996E46"/>
	</linearGradient>
	<path id="XMLID_18_" class="st14" d="M113.7,33.8h-10.1v-4.3h8.2c0,0,0.8-0.1,0.9-1.1h12l4.4,6.1H115
		C115,34.5,115.3,33.8,113.7,33.8z"/>
	<linearGradient id="XMLID_152_" gradientUnits="userSpaceOnUse" x1="103.9648" y1="24.0529" x2="123.032" y2="24.0529">
		<stop  offset="5.405406e-003" style="stop-color:#FFFFFF"/>
		<stop  offset="0.2676" style="stop-color:#F0E24B"/>
		<stop  offset="0.4937" style="stop-color:#C3A94D"/>
		<stop  offset="0.7459" style="stop-color:#986E46"/>
		<stop  offset="0.9757" style="stop-color:#996E46"/>
	</linearGradient>
	<path id="XMLID_17_" class="st15" d="M110.8,26.3H104v-4.2h5.2c0,0,0.2,0.3,0.5-0.7l8.7-0.3l4.7,6h-10.8
		C112.2,27.1,111.9,26.3,110.8,26.3z"/>
	<linearGradient id="XMLID_153_" gradientUnits="userSpaceOnUse" x1="103.6523" y1="16.1073" x2="115.6865" y2="16.1073">
		<stop  offset="5.405406e-003" style="stop-color:#FFFFFF"/>
		<stop  offset="0.2676" style="stop-color:#F0E24B"/>
		<stop  offset="0.4937" style="stop-color:#C3A94D"/>
		<stop  offset="0.7459" style="stop-color:#986E46"/>
		<stop  offset="0.9757" style="stop-color:#996E46"/>
	</linearGradient>
	<path id="XMLID_16_" class="st16" d="M107.6,18.4h-4v-4.4h2.4c0,0,0.6,0,0.6-0.9h4.1l4.9,6h-6.8C108.9,19.1,108.7,18.4,107.6,18.4z
		"/>
	<linearGradient id="XMLID_154_" gradientUnits="userSpaceOnUse" x1="103.9648" y1="8.9822" x2="109.2786" y2="8.9822">
		<stop  offset="5.405406e-003" style="stop-color:#FFFFFF"/>
		<stop  offset="0.2676" style="stop-color:#F0E24B"/>
		<stop  offset="0.4937" style="stop-color:#C3A94D"/>
		<stop  offset="0.7459" style="stop-color:#986E46"/>
		<stop  offset="0.9757" style="stop-color:#996E46"/>
	</linearGradient>
	<path id="XMLID_15_" class="st17" d="M106.7,12.2c0,0-0.9-1.4-2-1.6L104,5.7l5.3,6.1L106.7,12.2z"/>
	<linearGradient id="XMLID_155_" gradientUnits="userSpaceOnUse" x1="97.5961" y1="106.1104" x2="10.0355" y2="106.1104">
		<stop  offset="5.405406e-003" style="stop-color:#FFFFFF"/>
		<stop  offset="0.2676" style="stop-color:#F0E24B"/>
		<stop  offset="0.4937" style="stop-color:#C3A94D"/>
		<stop  offset="0.7459" style="stop-color:#986E46"/>
		<stop  offset="0.9757" style="stop-color:#996E46"/>
	</linearGradient>
	<path id="XMLID_14_" class="st18" d="M97.6,107.9v-3.6H62.4c0,0-0.6,0.9-2,0.8c-1.4-0.1-49.1,0-49.1,0l-1.3,2.9H97.6z"/>
	<linearGradient id="XMLID_156_" gradientUnits="userSpaceOnUse" x1="16.3652" y1="98.9529" x2="97.5961" y2="98.9529">
		<stop  offset="8.108108e-003" style="stop-color:#996E46"/>
		<stop  offset="4.811692e-002" style="stop-color:#9E7547"/>
		<stop  offset="0.1783" style="stop-color:#AB894B"/>
		<stop  offset="0.2676" style="stop-color:#B0904C"/>
		<stop  offset="0.3449" style="stop-color:#B7994C"/>
		<stop  offset="0.5099" style="stop-color:#C3A94D"/>
		<stop  offset="0.5602" style="stop-color:#C7AE4D"/>
		<stop  offset="0.6171" style="stop-color:#D1BB4C"/>
		<stop  offset="0.677" style="stop-color:#E3D24C"/>
		<stop  offset="0.7108" style="stop-color:#F0E24B"/>
		<stop  offset="0.8033" style="stop-color:#F0E24D"/>
		<stop  offset="0.8468" style="stop-color:#F1E455"/>
		<stop  offset="0.8801" style="stop-color:#F2E662"/>
		<stop  offset="0.9082" style="stop-color:#F3E974"/>
		<stop  offset="0.933" style="stop-color:#F5EC8C"/>
		<stop  offset="0.9555" style="stop-color:#F8F1A9"/>
		<stop  offset="0.9763" style="stop-color:#FBF7CC"/>
		<stop  offset="0.9951" style="stop-color:#FEFDF3"/>
		<stop  offset="1" style="stop-color:#FFFFFF"/>
	</linearGradient>
	<path id="XMLID_13_" class="st19" d="M18.2,97.9l-1.9,2.5h47.2c0,0,1.2,0.1,1.1,0.8h33v-4.4H65.1c0,0-0.4,1-0.9,1
		S18.2,97.9,18.2,97.9z"/>
	<linearGradient id="XMLID_157_" gradientUnits="userSpaceOnUse" x1="23.4763" y1="91.4068" x2="97.5961" y2="91.4068">
		<stop  offset="8.108108e-003" style="stop-color:#996E46"/>
		<stop  offset="0.1109" style="stop-color:#9B7147"/>
		<stop  offset="0.1844" style="stop-color:#A17A48"/>
		<stop  offset="0.2486" style="stop-color:#AC8A4B"/>
		<stop  offset="0.2676" style="stop-color:#B0904C"/>
		<stop  offset="0.3449" style="stop-color:#B7994C"/>
		<stop  offset="0.5099" style="stop-color:#C3A94D"/>
		<stop  offset="0.5602" style="stop-color:#C7AE4D"/>
		<stop  offset="0.6171" style="stop-color:#D1BB4C"/>
		<stop  offset="0.677" style="stop-color:#E3D24C"/>
		<stop  offset="0.7108" style="stop-color:#F0E24B"/>
		<stop  offset="0.8033" style="stop-color:#F0E24D"/>
		<stop  offset="0.8468" style="stop-color:#F1E455"/>
		<stop  offset="0.8801" style="stop-color:#F2E662"/>
		<stop  offset="0.9082" style="stop-color:#F3E974"/>
		<stop  offset="0.933" style="stop-color:#F5EC8C"/>
		<stop  offset="0.9555" style="stop-color:#F8F1A9"/>
		<stop  offset="0.9763" style="stop-color:#FBF7CC"/>
		<stop  offset="0.9951" style="stop-color:#FEFDF3"/>
		<stop  offset="1" style="stop-color:#FFFFFF"/>
	</linearGradient>
	<path id="XMLID_12_" class="st20" d="M25.2,90.1l-1.7,2.7h43c0,0,1.1,0.1,1,0.8h30.1v-4.4H67.9c0,0-0.3,1-0.8,1
		C66.6,90.2,25.2,90.1,25.2,90.1z"/>
	<linearGradient id="XMLID_158_" gradientUnits="userSpaceOnUse" x1="29.3371" y1="84.4976" x2="97.5961" y2="84.4976">
		<stop  offset="8.108108e-003" style="stop-color:#996E46"/>
		<stop  offset="0.1109" style="stop-color:#9B7147"/>
		<stop  offset="0.1844" style="stop-color:#A17A48"/>
		<stop  offset="0.2486" style="stop-color:#AC8A4B"/>
		<stop  offset="0.2676" style="stop-color:#B0904C"/>
		<stop  offset="0.3449" style="stop-color:#B7994C"/>
		<stop  offset="0.5099" style="stop-color:#C3A94D"/>
		<stop  offset="0.5602" style="stop-color:#C7AE4D"/>
		<stop  offset="0.6171" style="stop-color:#D1BB4C"/>
		<stop  offset="0.677" style="stop-color:#E3D24C"/>
		<stop  offset="0.7108" style="stop-color:#F0E24B"/>
		<stop  offset="0.8033" style="stop-color:#F0E24D"/>
		<stop  offset="0.8468" style="stop-color:#F1E455"/>
		<stop  offset="0.8801" style="stop-color:#F2E662"/>
		<stop  offset="0.9082" style="stop-color:#F3E974"/>
		<stop  offset="0.933" style="stop-color:#F5EC8C"/>
		<stop  offset="0.9555" style="stop-color:#F8F1A9"/>
		<stop  offset="0.9763" style="stop-color:#FBF7CC"/>
		<stop  offset="0.9951" style="stop-color:#FEFDF3"/>
		<stop  offset="1" style="stop-color:#FFFFFF"/>
	</linearGradient>
	<path id="XMLID_11_" class="st21" d="M31,83.2l-1.6,2.7H69c0,0,1,0.1,0.9,0.8h27.7v-4.4H70.3c0,0-0.3,1-0.7,1
		C69.1,83.3,31,83.2,31,83.2z"/>
	<linearGradient id="XMLID_159_" gradientUnits="userSpaceOnUse" x1="36.4678" y1="76.4548" x2="96.9514" y2="76.4548">
		<stop  offset="8.108108e-003" style="stop-color:#996E46"/>
		<stop  offset="0.1109" style="stop-color:#9B7147"/>
		<stop  offset="0.1844" style="stop-color:#A17A48"/>
		<stop  offset="0.2486" style="stop-color:#AC8A4B"/>
		<stop  offset="0.2676" style="stop-color:#B0904C"/>
		<stop  offset="0.3449" style="stop-color:#B7994C"/>
		<stop  offset="0.5099" style="stop-color:#C3A94D"/>
		<stop  offset="0.5602" style="stop-color:#C7AE4D"/>
		<stop  offset="0.6171" style="stop-color:#D1BB4C"/>
		<stop  offset="0.677" style="stop-color:#E3D24C"/>
		<stop  offset="0.7108" style="stop-color:#F0E24B"/>
		<stop  offset="0.8033" style="stop-color:#F0E24D"/>
		<stop  offset="0.8468" style="stop-color:#F1E455"/>
		<stop  offset="0.8801" style="stop-color:#F2E662"/>
		<stop  offset="0.9082" style="stop-color:#F3E974"/>
		<stop  offset="0.933" style="stop-color:#F5EC8C"/>
		<stop  offset="0.9555" style="stop-color:#F8F1A9"/>
		<stop  offset="0.9763" style="stop-color:#FBF7CC"/>
		<stop  offset="0.9951" style="stop-color:#FEFDF3"/>
		<stop  offset="1" style="stop-color:#FFFFFF"/>
	</linearGradient>
	<path id="XMLID_10_" class="st22" d="M36.5,78.1h35c0,0,1-0.2,1,0.6L97,78.5v-4.3l-24.1,0.1c0,0-0.1,0.9-1.1,1
		c-1.3,0.1-33.9,0-33.9,0L36.5,78.1z"/>
	<linearGradient id="XMLID_160_" gradientUnits="userSpaceOnUse" x1="42.8268" y1="69.2817" x2="96.9514" y2="69.2817">
		<stop  offset="8.108108e-003" style="stop-color:#996E46"/>
		<stop  offset="0.1109" style="stop-color:#9B7147"/>
		<stop  offset="0.1844" style="stop-color:#A17A48"/>
		<stop  offset="0.2486" style="stop-color:#AC8A4B"/>
		<stop  offset="0.2676" style="stop-color:#B0904C"/>
		<stop  offset="0.3449" style="stop-color:#B7994C"/>
		<stop  offset="0.5099" style="stop-color:#C3A94D"/>
		<stop  offset="0.5602" style="stop-color:#C7AE4D"/>
		<stop  offset="0.6171" style="stop-color:#D1BB4C"/>
		<stop  offset="0.677" style="stop-color:#E3D24C"/>
		<stop  offset="0.7108" style="stop-color:#F0E24B"/>
		<stop  offset="0.8033" style="stop-color:#F0E24D"/>
		<stop  offset="0.8468" style="stop-color:#F1E455"/>
		<stop  offset="0.8801" style="stop-color:#F2E662"/>
		<stop  offset="0.9082" style="stop-color:#F3E974"/>
		<stop  offset="0.933" style="stop-color:#F5EC8C"/>
		<stop  offset="0.9555" style="stop-color:#F8F1A9"/>
		<stop  offset="0.9763" style="stop-color:#FBF7CC"/>
		<stop  offset="0.9951" style="stop-color:#FEFDF3"/>
		<stop  offset="1" style="stop-color:#FFFFFF"/>
	</linearGradient>
	<path id="XMLID_9_" class="st23" d="M42.8,70.8h31.2c0,0,0.9-0.2,0.9,0.6l22,0.1v-4.3l-21.7-0.1c0,0-0.1,0.9-1,1
		C73.1,68.1,44.6,68,44.6,68L42.8,70.8z"/>
	<linearGradient id="XMLID_161_" gradientUnits="userSpaceOnUse" x1="49.7718" y1="61.9887" x2="96.9514" y2="61.9887">
		<stop  offset="8.108108e-003" style="stop-color:#996E46"/>
		<stop  offset="0.1109" style="stop-color:#9B7147"/>
		<stop  offset="0.1844" style="stop-color:#A17A48"/>
		<stop  offset="0.2486" style="stop-color:#AC8A4B"/>
		<stop  offset="0.2676" style="stop-color:#B0904C"/>
		<stop  offset="0.3449" style="stop-color:#B7994C"/>
		<stop  offset="0.5099" style="stop-color:#C3A94D"/>
		<stop  offset="0.5602" style="stop-color:#C7AE4D"/>
		<stop  offset="0.6171" style="stop-color:#D1BB4C"/>
		<stop  offset="0.677" style="stop-color:#E3D24C"/>
		<stop  offset="0.7108" style="stop-color:#F0E24B"/>
		<stop  offset="0.8033" style="stop-color:#F0E24D"/>
		<stop  offset="0.8468" style="stop-color:#F1E455"/>
		<stop  offset="0.8801" style="stop-color:#F2E662"/>
		<stop  offset="0.9082" style="stop-color:#F3E974"/>
		<stop  offset="0.933" style="stop-color:#F5EC8C"/>
		<stop  offset="0.9555" style="stop-color:#F8F1A9"/>
		<stop  offset="0.9763" style="stop-color:#FBF7CC"/>
		<stop  offset="0.9951" style="stop-color:#FEFDF3"/>
		<stop  offset="1" style="stop-color:#FFFFFF"/>
	</linearGradient>
	<path id="XMLID_8_" class="st24" d="M51.8,60.3l27.1,0.3c0,0,0.7-0.1,0.8-0.8H97v4.4H79c0,0,0.1-0.8-0.9-0.8
		c-0.9,0-28.3-0.3-28.3-0.3L51.8,60.3z"/>
	<linearGradient id="XMLID_162_" gradientUnits="userSpaceOnUse" x1="56.5313" y1="54.3454" x2="96.9514" y2="54.3454">
		<stop  offset="8.108108e-003" style="stop-color:#996E46"/>
		<stop  offset="0.1109" style="stop-color:#9B7147"/>
		<stop  offset="0.1844" style="stop-color:#A17A48"/>
		<stop  offset="0.2486" style="stop-color:#AC8A4B"/>
		<stop  offset="0.2676" style="stop-color:#B0904C"/>
		<stop  offset="0.3449" style="stop-color:#B7994C"/>
		<stop  offset="0.5099" style="stop-color:#C3A94D"/>
		<stop  offset="0.5602" style="stop-color:#C7AE4D"/>
		<stop  offset="0.6171" style="stop-color:#D1BB4C"/>
		<stop  offset="0.677" style="stop-color:#E3D24C"/>
		<stop  offset="0.7108" style="stop-color:#F0E24B"/>
		<stop  offset="0.8033" style="stop-color:#F0E24D"/>
		<stop  offset="0.8468" style="stop-color:#F1E455"/>
		<stop  offset="0.8801" style="stop-color:#F2E662"/>
		<stop  offset="0.9082" style="stop-color:#F3E974"/>
		<stop  offset="0.933" style="stop-color:#F5EC8C"/>
		<stop  offset="0.9555" style="stop-color:#F8F1A9"/>
		<stop  offset="0.9763" style="stop-color:#FBF7CC"/>
		<stop  offset="0.9951" style="stop-color:#FEFDF3"/>
		<stop  offset="1" style="stop-color:#FFFFFF"/>
	</linearGradient>
	<path id="XMLID_7_" class="st25" d="M58.7,52.7l23.2,0.4c0,0,0.9,0.2,1.1-1h14v4.4H82.1c0,0,0.1-0.6-0.7-0.6
		c-0.8,0-24.9-0.1-24.9-0.1L58.7,52.7z"/>
	<linearGradient id="XMLID_163_" gradientUnits="userSpaceOnUse" x1="63.0563" y1="46.7021" x2="97.7524" y2="46.7021">
		<stop  offset="8.108108e-003" style="stop-color:#996E46"/>
		<stop  offset="0.1109" style="stop-color:#9B7147"/>
		<stop  offset="0.1844" style="stop-color:#A17A48"/>
		<stop  offset="0.2486" style="stop-color:#AC8A4B"/>
		<stop  offset="0.2676" style="stop-color:#B0904C"/>
		<stop  offset="0.3449" style="stop-color:#B7994C"/>
		<stop  offset="0.5099" style="stop-color:#C3A94D"/>
		<stop  offset="0.5602" style="stop-color:#C7AE4D"/>
		<stop  offset="0.6171" style="stop-color:#D1BB4C"/>
		<stop  offset="0.677" style="stop-color:#E3D24C"/>
		<stop  offset="0.7108" style="stop-color:#F0E24B"/>
		<stop  offset="0.8033" style="stop-color:#F0E24D"/>
		<stop  offset="0.8468" style="stop-color:#F1E455"/>
		<stop  offset="0.8801" style="stop-color:#F2E662"/>
		<stop  offset="0.9082" style="stop-color:#F3E974"/>
		<stop  offset="0.933" style="stop-color:#F5EC8C"/>
		<stop  offset="0.9555" style="stop-color:#F8F1A9"/>
		<stop  offset="0.9763" style="stop-color:#FBF7CC"/>
		<stop  offset="0.9951" style="stop-color:#FEFDF3"/>
		<stop  offset="1" style="stop-color:#FFFFFF"/>
	</linearGradient>
	<path id="XMLID_6_" class="st26" d="M65.2,45.1l19.3,0.3c0,0,0.9,0,1.1-0.9h12.2v4.4H84.6c0,0,0.5-0.6-0.5-0.6s-21,0-21,0
		L65.2,45.1z"/>
	<linearGradient id="XMLID_164_" gradientUnits="userSpaceOnUse" x1="70.1284" y1="39.0804" x2="98.7292" y2="39.0804">
		<stop  offset="8.108108e-003" style="stop-color:#996E46"/>
		<stop  offset="0.1109" style="stop-color:#9B7147"/>
		<stop  offset="0.1844" style="stop-color:#A17A48"/>
		<stop  offset="0.2486" style="stop-color:#AC8A4B"/>
		<stop  offset="0.2676" style="stop-color:#B0904C"/>
		<stop  offset="0.3449" style="stop-color:#B7994C"/>
		<stop  offset="0.5099" style="stop-color:#C3A94D"/>
		<stop  offset="0.5602" style="stop-color:#C7AE4D"/>
		<stop  offset="0.6171" style="stop-color:#D1BB4C"/>
		<stop  offset="0.677" style="stop-color:#E3D24C"/>
		<stop  offset="0.7108" style="stop-color:#F0E24B"/>
		<stop  offset="0.7445" style="stop-color:#F1E457"/>
		<stop  offset="0.8056" style="stop-color:#F4E978"/>
		<stop  offset="0.8873" style="stop-color:#F8F2AC"/>
		<stop  offset="0.9855" style="stop-color:#FEFDF4"/>
		<stop  offset="1" style="stop-color:#FFFFFF"/>
	</linearGradient>
	<path id="XMLID_5_" class="st27" d="M87.1,40.6l-17-0.2l1.8-3.1l15.5,0.3c0,0,1,0.3,1.1-0.8h10.1v4.5H87.8
		C87.8,41.3,87.8,40.6,87.1,40.6z"/>
	<linearGradient id="XMLID_165_" gradientUnits="userSpaceOnUse" x1="77.0832" y1="31.6746" x2="99.706" y2="31.6746">
		<stop  offset="8.108108e-003" style="stop-color:#996E46"/>
		<stop  offset="0.1109" style="stop-color:#9B7147"/>
		<stop  offset="0.1844" style="stop-color:#A17A48"/>
		<stop  offset="0.2486" style="stop-color:#AC8A4B"/>
		<stop  offset="0.2676" style="stop-color:#B0904C"/>
		<stop  offset="0.3449" style="stop-color:#B7994C"/>
		<stop  offset="0.5099" style="stop-color:#C3A94D"/>
		<stop  offset="0.5602" style="stop-color:#C7AE4D"/>
		<stop  offset="0.6171" style="stop-color:#D1BB4C"/>
		<stop  offset="0.677" style="stop-color:#E3D24C"/>
		<stop  offset="0.7108" style="stop-color:#F0E24B"/>
		<stop  offset="0.7445" style="stop-color:#F1E457"/>
		<stop  offset="0.8056" style="stop-color:#F4E978"/>
		<stop  offset="0.8873" style="stop-color:#F8F2AC"/>
		<stop  offset="0.9855" style="stop-color:#FEFDF4"/>
		<stop  offset="1" style="stop-color:#FFFFFF"/>
	</linearGradient>
	<path id="XMLID_4_" class="st28" d="M90.3,33.3L77.1,33l2-3.2l11.8,0.3c0,0,0.9,0.3,1.1-0.9h7.8v4.8h-8.6
		C91.1,34.1,91.4,33.3,90.3,33.3z"/>
	<linearGradient id="XMLID_166_" gradientUnits="userSpaceOnUse" x1="83.6473" y1="24.2688" x2="100.8" y2="24.2688">
		<stop  offset="8.108108e-003" style="stop-color:#996E46"/>
		<stop  offset="0.1109" style="stop-color:#9B7147"/>
		<stop  offset="0.1844" style="stop-color:#A17A48"/>
		<stop  offset="0.2486" style="stop-color:#AC8A4B"/>
		<stop  offset="0.2676" style="stop-color:#B0904C"/>
		<stop  offset="0.3449" style="stop-color:#B7994C"/>
		<stop  offset="0.5099" style="stop-color:#C3A94D"/>
		<stop  offset="0.5602" style="stop-color:#C7AE4D"/>
		<stop  offset="0.6171" style="stop-color:#D1BB4C"/>
		<stop  offset="0.677" style="stop-color:#E3D24C"/>
		<stop  offset="0.7108" style="stop-color:#F0E24B"/>
		<stop  offset="0.7445" style="stop-color:#F1E457"/>
		<stop  offset="0.8056" style="stop-color:#F4E978"/>
		<stop  offset="0.8873" style="stop-color:#F8F2AC"/>
		<stop  offset="0.9855" style="stop-color:#FEFDF4"/>
		<stop  offset="1" style="stop-color:#FFFFFF"/>
	</linearGradient>
	<path id="XMLID_3_" class="st29" d="M92.9,25.7l-9.3-0.3l1.5-2.8h8.5c0,0,0.7,0.3,0.9-0.6h6.2v4.6h-7.2
		C93.6,26.6,93.8,25.7,92.9,25.7z"/>
	<linearGradient id="XMLID_167_" gradientUnits="userSpaceOnUse" x1="91.032" y1="16.28" x2="101.98" y2="16.28">
		<stop  offset="8.108108e-003" style="stop-color:#996E46"/>
		<stop  offset="0.1109" style="stop-color:#9B7147"/>
		<stop  offset="0.1844" style="stop-color:#A17A48"/>
		<stop  offset="0.2486" style="stop-color:#AC8A4B"/>
		<stop  offset="0.2676" style="stop-color:#B0904C"/>
		<stop  offset="0.3449" style="stop-color:#B7994C"/>
		<stop  offset="0.5099" style="stop-color:#C3A94D"/>
		<stop  offset="0.5602" style="stop-color:#C7AE4D"/>
		<stop  offset="0.6171" style="stop-color:#D1BB4C"/>
		<stop  offset="0.677" style="stop-color:#E3D24C"/>
		<stop  offset="0.7108" style="stop-color:#F0E24B"/>
		<stop  offset="0.7445" style="stop-color:#F1E457"/>
		<stop  offset="0.8056" style="stop-color:#F4E978"/>
		<stop  offset="0.8873" style="stop-color:#F8F2AC"/>
		<stop  offset="0.9855" style="stop-color:#FEFDF4"/>
		<stop  offset="1" style="stop-color:#FFFFFF"/>
	</linearGradient>
	<path id="XMLID_2_" class="st30" d="M96.8,17.7H91l1.7-3h4.8c0,0,0.8,0,0.8-0.9l3.7,0.1v4.8h-4.5C97.4,18.7,97.6,17.7,96.8,17.7z"
		/>
	<linearGradient id="XMLID_168_" gradientUnits="userSpaceOnUse" x1="97.0882" y1="7.6219" x2="102.3238" y2="7.6219">
		<stop  offset="8.108108e-003" style="stop-color:#996E46"/>
		<stop  offset="0.1109" style="stop-color:#9B7147"/>
		<stop  offset="0.1844" style="stop-color:#A17A48"/>
		<stop  offset="0.2486" style="stop-color:#AC8A4B"/>
		<stop  offset="0.2676" style="stop-color:#B0904C"/>
		<stop  offset="0.3449" style="stop-color:#B7994C"/>
		<stop  offset="0.5099" style="stop-color:#C3A94D"/>
		<stop  offset="0.5602" style="stop-color:#C7AE4D"/>
		<stop  offset="0.6171" style="stop-color:#D1BB4C"/>
		<stop  offset="0.677" style="stop-color:#E3D24C"/>
		<stop  offset="0.7108" style="stop-color:#F0E24B"/>
		<stop  offset="0.7445" style="stop-color:#F1E457"/>
		<stop  offset="0.8056" style="stop-color:#F4E978"/>
		<stop  offset="0.8873" style="stop-color:#F8F2AC"/>
		<stop  offset="0.9855" style="stop-color:#FEFDF4"/>
		<stop  offset="1" style="stop-color:#FFFFFF"/>
	</linearGradient>
	<path id="XMLID_1_" class="st31" d="M99.7,10h-2.6l5.2-5.9l-0.2,7.1h-1.6C100.6,11.2,100.7,10,99.7,10z"/>
</g>
<g id="XMLID_111_">
	<g id="XMLID_225_">
		<path id="XMLID_237_" class="st32" d="M86,140.8l-1.2,4.1h0.4c0.9,0,1.6-0.1,2.1-0.4c0.4-0.2,0.8-0.7,1.1-1.3h0.3l-1.2,4.1h-0.3
			c0-0.3,0.1-0.5,0.1-0.7c0-0.3-0.1-0.5-0.3-0.7c-0.2-0.2-0.4-0.3-0.7-0.4c-0.2-0.1-0.5-0.1-1.1-0.1h-0.6l-1,3.5
			c-0.1,0.3-0.1,0.5-0.1,0.7c0,0.1,0.1,0.2,0.2,0.3c0.2,0.1,0.5,0.2,0.9,0.2c0.9,0,1.7-0.2,2.5-0.6c0.8-0.4,1.5-0.9,2.1-1.7h0.3
			l-1.1,2.9h-9l0.1-0.3c0.5,0,0.9-0.1,1.2-0.3c0.2-0.2,0.5-0.6,0.7-1.3l2-6.7c0.1-0.4,0.2-0.7,0.2-0.9c0-0.2-0.1-0.3-0.2-0.5
			c-0.1-0.1-0.5-0.2-1-0.2l0.1-0.3h8.3l-0.7,2.6h-0.3c0-0.5-0.1-0.9-0.2-1.1c-0.2-0.3-0.5-0.6-0.9-0.7c-0.4-0.2-0.9-0.2-1.7-0.2H86z
			"/>
		<path id="XMLID_233_" class="st32" d="M96.7,144h2.1l-0.2,0.8h-1.1c0.2,0.3,0.2,0.6,0.2,0.9c0,0.5-0.1,0.9-0.4,1.3
			c-0.3,0.4-0.6,0.7-1.1,0.9c-0.5,0.2-1,0.4-1.7,0.4c-0.2,0-0.3,0-0.5,0s-0.4-0.1-0.6-0.1c-0.3,0.2-0.6,0.3-0.6,0.4
			c-0.1,0.1-0.1,0.1-0.1,0.2c0,0.1,0,0.2,0.1,0.2c0.1,0.1,0.3,0.2,0.6,0.3c1.1,0.2,1.7,0.4,2.1,0.5c0.5,0.2,0.8,0.4,1,0.7
			c0.2,0.3,0.4,0.7,0.4,1.1c0,0.6-0.3,1.2-0.9,1.7c-0.6,0.5-1.5,0.7-2.7,0.7c-1.3,0-2.2-0.2-2.8-0.6c-0.4-0.3-0.6-0.7-0.6-1.1
			c0-0.3,0.1-0.6,0.4-0.9c0.3-0.3,0.9-0.5,1.8-0.7c-0.3-0.2-0.5-0.3-0.6-0.5c-0.1-0.2-0.2-0.4-0.2-0.6c0-0.3,0.1-0.6,0.4-0.9
			c0.3-0.3,0.7-0.5,1.4-0.8c-0.5-0.2-0.9-0.5-1.1-0.8c-0.2-0.3-0.3-0.7-0.3-1.1c0-0.4,0.1-0.9,0.4-1.3c0.3-0.4,0.7-0.7,1.2-1
			c0.5-0.3,1.1-0.4,1.8-0.4c0.4,0,0.8,0,1.2,0.1C96.2,143.7,96.5,143.8,96.7,144z M92.4,151c-0.5,0.2-0.8,0.4-1,0.6
			s-0.3,0.5-0.3,0.7c0,0.3,0.2,0.6,0.5,0.9c0.4,0.3,0.9,0.4,1.7,0.4c0.6,0,1.1-0.1,1.4-0.4c0.3-0.2,0.4-0.5,0.4-0.8
			c0-0.3-0.1-0.5-0.4-0.7c-0.3-0.2-0.8-0.4-1.5-0.5C92.9,151.1,92.6,151.1,92.4,151z M95.1,143.9c-0.3,0-0.5,0.1-0.6,0.2
			c-0.3,0.3-0.5,0.7-0.7,1.3c-0.2,0.6-0.3,1.2-0.3,1.7c0,0.3,0.1,0.5,0.2,0.6c0.1,0.1,0.3,0.2,0.5,0.2c0.2,0,0.4-0.1,0.5-0.2
			c0.3-0.3,0.5-0.7,0.8-1.4c0.2-0.6,0.3-1.2,0.3-1.7c0-0.2-0.1-0.4-0.2-0.5C95.4,144,95.3,143.9,95.1,143.9z"/>
		<path id="XMLID_231_" class="st32" d="M98.9,144.2l2.4-0.7c0.2,0.2,0.3,0.5,0.4,0.7c0.1,0.4,0.2,0.9,0.3,1.5
			c0.1,1.3,0.2,2.6,0.2,4.1c0.6-0.7,1.2-1.7,1.9-2.9c0.2-0.4,0.3-0.7,0.3-1c0-0.2-0.1-0.4-0.4-0.6c-0.2-0.2-0.4-0.3-0.5-0.4
			c-0.1-0.1-0.1-0.2-0.1-0.4c0-0.3,0.1-0.5,0.3-0.7c0.2-0.2,0.4-0.3,0.7-0.3c0.3,0,0.5,0.1,0.7,0.3c0.2,0.2,0.3,0.5,0.3,0.8
			c0,0.3-0.1,0.7-0.3,1.2c-0.2,0.5-0.6,1.2-1.4,2.3c-0.9,1.4-1.8,2.6-2.7,3.7c-0.6,0.7-1,1.1-1.4,1.4c-0.3,0.3-0.7,0.5-1.1,0.7
			c-0.2,0.1-0.4,0.1-0.7,0.1c-0.3,0-0.5-0.1-0.8-0.3c-0.2-0.2-0.3-0.5-0.3-0.7c0-0.3,0.1-0.5,0.3-0.7c0.2-0.2,0.4-0.3,0.7-0.3
			c0.3,0,0.6,0.2,0.9,0.5c0.2,0.2,0.3,0.3,0.4,0.3c0.1,0,0.2,0,0.3-0.1c0.2-0.1,0.4-0.3,0.6-0.6c0-0.6,0-1.1,0-1.5
			c0-0.4,0-1.1-0.1-1.9l-0.1-2.9c0-0.5-0.2-0.9-0.3-1.2c-0.1-0.2-0.3-0.3-0.6-0.3c-0.1,0-0.2,0-0.3,0V144.2z"/>
		<path id="XMLID_228_" class="st32" d="M106.5,143.9l2.6-0.4h0.5l-0.3,1.3c0.5-0.5,1-0.8,1.3-1c0.3-0.2,0.7-0.3,1-0.3
			c0.5,0,0.9,0.2,1.1,0.6c0.3,0.4,0.4,0.8,0.4,1.4c0,1.5-0.5,2.8-1.5,3.9c-0.9,1-1.9,1.5-3,1.5c-0.2,0-0.4,0-0.5-0.1
			c-0.1,0-0.3-0.1-0.6-0.2L107,152c-0.1,0.5-0.2,0.9-0.2,1.2c0,0.2,0.1,0.3,0.2,0.4c0.1,0.1,0.4,0.2,0.8,0.2l-0.1,0.3h-4.2l0.1-0.3
			c0.3,0,0.6-0.1,0.8-0.3s0.4-0.6,0.6-1.3l1.9-6.5c0.1-0.5,0.2-0.8,0.2-1c0-0.1,0-0.2-0.1-0.2c0-0.1-0.1-0.1-0.2-0.1
			c-0.1,0-0.3,0-0.6,0L106.5,143.9z M107.7,149.9c0.2,0.3,0.3,0.4,0.4,0.5c0.1,0.1,0.3,0.1,0.4,0.1s0.3,0,0.5-0.1
			c0.2-0.1,0.4-0.3,0.6-0.5c0.2-0.3,0.5-0.6,0.7-1.1c0.2-0.4,0.4-0.9,0.5-1.5c0.1-0.5,0.2-1.1,0.2-1.6c0-0.4-0.1-0.7-0.2-0.9
			c-0.1-0.2-0.3-0.3-0.5-0.3c-0.2,0-0.4,0-0.5,0.1c-0.2,0.1-0.5,0.4-0.8,0.7L107.7,149.9z"/>
		<path id="XMLID_226_" class="st32" d="M117.9,141.6l-0.6,2.1h1l-0.3,0.9h-1l-1.3,4.5c-0.1,0.3-0.1,0.5-0.1,0.6
			c0,0.1,0,0.1,0.1,0.2c0,0,0.1,0.1,0.2,0.1c0.1,0,0.2,0,0.3-0.1c0.2-0.2,0.5-0.5,0.8-0.9l0.3,0.2c-0.4,0.6-0.7,1.1-1.2,1.4
			c-0.4,0.3-0.8,0.4-1.3,0.4c-0.4,0-0.6-0.1-0.8-0.3c-0.2-0.2-0.3-0.4-0.3-0.7c0-0.3,0.1-0.7,0.2-1.2l1.2-4.2h-1.1l0.2-0.6
			c0.7-0.2,1.2-0.5,1.7-0.8c0.5-0.3,1-0.8,1.6-1.6H117.9z"/>
	</g>
</g>
</svg>
